<?xml version="1.0" encoding="iso-8859-1"?>
<!-- Generator: Adobe Illustrator 17.1.0, SVG Export Plug-In . SVG Version: 6.00 Build 0)  -->
<!DOCTYPE svg PUBLIC "-//W3C//DTD SVG 1.1//EN" "http://www.w3.org/Graphics/SVG/1.1/DTD/svg11.dtd">
<svg version="1.1" id="Capa_1" xmlns="http://www.w3.org/2000/svg" xmlns:xlink="http://www.w3.org/1999/xlink" x="0px" y="0px"
	 viewBox="0 0 492.653 492.653" style="enable-background:new 0 0 492.653 492.653;" xml:space="preserve">
<g>
	<path d="M457.074,477.653h-50.976v-15.368c0-35.193-9.385-62.355-27.894-80.732c-23.592-23.424-53.221-23.495-54.407-23.474
		h-37.571v-22.734c0-0.396-0.04-0.783-0.099-1.163c24.057-9.94,39.261-26.521,48.519-40.897
		c14.432-22.41,17.688-43.977,17.82-44.884c0.052-0.356,0.078-0.716,0.078-1.076v-1.606c5.268-1.299,9.85-4.017,13.489-8.046
		c10.619-11.756,10.003-30.305,9.245-37.735c-0.577-5.655-3.135-10.399-7.398-13.722c-0.286-0.223-0.577-0.437-0.872-0.642
		c7.232-24.788,6.384-39.227,4.536-46.799c1.342-0.745,2.135-1.229,2.351-1.363c2.204-1.368,3.544-3.778,3.544-6.372V98.197h20.237
		c4.142,0,7.5-3.358,7.5-7.5V65.082c0-3.455-2.365-6.464-5.721-7.286c-0.324-0.079-32.845-8.184-72.886-30.289
		C284.87,4.487,266.18,0.041,246.478,0.002c-0.013,0-0.025-0.002-0.038-0.002c-0.038,0-0.076,0.001-0.114,0.001
		c-0.038,0-0.076-0.001-0.114-0.001c-0.013,0-0.025,0.002-0.038,0.002c-19.702,0.039-38.392,4.485-80.091,27.505
		C126.04,49.612,93.52,57.717,93.201,57.795c-3.36,0.818-5.725,3.829-5.725,7.287v25.615c0,4.142,3.358,7.5,7.5,7.5h20.237v32.844
		c0,2.594,1.34,5.003,3.544,6.372c0.207,0.129,0.944,0.58,2.195,1.277c-1.863,7.547-2.747,21.999,4.514,46.885
		c-0.295,0.205-0.585,0.419-0.872,0.642c-4.263,3.323-6.821,8.067-7.398,13.723c-0.757,7.429-1.373,25.978,9.245,37.734
		c3.68,4.074,8.326,6.804,13.668,8.085v1.567c0,0.36,0.026,0.72,0.078,1.076c0.131,0.907,3.388,22.474,17.82,44.884
		c9.258,14.376,24.462,30.956,48.519,40.897c-0.059,0.38-0.099,0.767-0.099,1.163v22.734h-37.518
		c-1.221,0.015-30.869,0.051-54.46,23.474c-18.509,18.377-27.894,45.54-27.894,80.732v15.368H35.578c-4.142,0-7.5,3.358-7.5,7.5
		c0,4.142,3.358,7.5,7.5,7.5h421.496c4.142,0,7.5-3.358,7.5-7.5C464.574,481.011,461.216,477.653,457.074,477.653z M323.852,373.079
		c0.258-0.031,24.576,0.047,43.785,19.118c15.568,15.457,23.462,39.039,23.462,70.088v15.368H266.554v-53.299l1.334,0.435
		c0.764,0.249,1.548,0.37,2.324,0.37c2.139,0,4.221-0.917,5.671-2.59l7.82-9.03l13.591-8.307c2.627-1.607,4.006-4.655,3.477-7.689
		l-4.271-24.463H323.852z M210.34,384.108c4.929,10.478,14.299,18.465,25.671,21.524l-10.277,3.351l-5.323-6.146
		c-0.506-0.584-1.099-1.086-1.758-1.489l-10.231-6.254L210.34,384.108z M282.951,382.695l2.165,12.399l-10.232,6.254
		c-0.659,0.403-1.252,0.905-1.758,1.489l-5.323,6.146l-10.69-3.486C268.778,402.204,278.285,393.718,282.951,382.695z
		 M246.769,417.902l4.785,1.56v58.19h-9.723v-58.14L246.769,417.902z M247.212,150.997c-0.3,0-0.595,0.022-0.886,0.057
		c-0.291-0.035-0.586-0.057-0.886-0.057c-39.255,0-69.453-7.157-87.872-13.16c-13.383-4.362-22.66-8.764-27.355-11.211v-6.836
		c18.482,2.13,65.142,6.751,121.996,6.751c34.349,0,72.416-1.692,110.23-6.635v6.722
		C350.73,132.733,310.408,150.997,247.212,150.997z M354.901,227.619c-0.72,0.797-1.508,1.455-2.357,2.007v-33.6
		c2.308,0.269,4.631,0.864,6.114,2.021c0.725,0.564,1.493,1.412,1.697,3.413C361.247,210.2,360.282,221.662,354.901,227.619z
		 M352.731,180.973c-0.063-0.005-0.125-0.01-0.187-0.014v-33.407c1.755-0.691,3.4-1.366,4.944-2.021
		C358.201,151.438,358.056,162.555,352.731,180.973z M102.476,83.197V70.798c11.411-3.345,38.569-12.335,70.856-30.159
		c39.176-21.626,55.354-25.621,72.994-25.638c17.641,0.017,33.818,4.011,72.994,25.638c32.286,17.824,59.445,26.814,70.856,30.159
		v12.399h-20.237c-4.142,0-7.5,3.358-7.5,7.5v14.08c-101.58,13.594-205.679,3.05-232.226-0.087V90.697c0-4.142-3.358-7.5-7.5-7.5
		H102.476z M134.995,145.458c1.593,0.678,3.294,1.378,5.114,2.094v33.393c-0.121,0.009-0.243,0.019-0.365,0.028
		C134.396,162.48,134.272,151.347,134.995,145.458z M137.573,227.619c-5.381-5.958-6.346-17.419-5.454-26.159
		c0.203-1.993,0.963-2.837,1.68-3.4c1.518-1.193,3.926-1.793,6.31-2.05v33.729C139.19,229.165,138.343,228.472,137.573,227.619z
		 M170.916,285.625c-11.735-18.011-15.267-35.842-15.808-38.914v-93.862c21.379,6.748,51.809,13.148,90.331,13.148
		c0.3,0,0.595-0.023,0.886-0.057c0.291,0.035,0.586,0.057,0.886,0.057c38.523,0,68.953-6.401,90.332-13.148v93.873
		c-0.529,3.061-3.936,20.472-15.509,38.442c-16.802,26.09-42.04,40.432-75.011,42.63h-1.396
		C212.862,325.61,187.725,311.423,170.916,285.625z M244.898,342.778c0.161,0.01,0.323,0.016,0.485,0.016h1.887
		c0.162,0,0.324-0.005,0.485-0.016c8.499-0.551,16.299-1.832,23.472-3.668v26.469c0,0.046,0.006,0.091,0.007,0.138
		c-0.102,0.494-0.157,1.006-0.157,1.531c0,13.647-11.103,24.751-24.75,24.751c-13.647,0-24.75-11.103-24.75-24.751
		c0-0.525-0.055-1.037-0.157-1.531c0.001-0.046,0.007-0.091,0.007-0.138V339.11C228.599,340.946,236.399,342.228,244.898,342.778z
		 M159.163,399.556l-7.893,6.572l-7.893-6.572v-20.198c5.871-2.75,11.387-4.294,15.786-5.163V399.556z M143.377,419.074l3.094,2.576
		c1.39,1.158,3.094,1.736,4.799,1.736c1.704,0,3.409-0.579,4.799-1.736l3.094-2.576v14.754l-7.893,6.572l-7.893-6.572V419.074z
		 M101.554,462.285c0-38.891,12.553-60.822,26.823-73.196v13.379v0.603v34.272c0,2.227,0.99,4.339,2.701,5.764l15.392,12.816
		c1.39,1.158,3.094,1.736,4.799,1.736c1.704,0,3.409-0.579,4.799-1.736l15.393-12.816c1.711-1.425,2.701-3.537,2.701-5.764V403.07
		v-0.603v-29.389h22.876l-4.27,24.463c-0.53,3.034,0.849,6.082,3.477,7.689l13.591,8.307l7.82,9.03c1.45,1.673,3.531,2.59,5.67,2.59
		c0.776,0,1.56-0.121,2.324-0.37l1.18-0.385v53.249H101.554V462.285z"/>
	<circle cx="193.089" cy="184.976" r="8.952"/>
	<circle cx="299.563" cy="184.976" r="8.951"/>
	<path d="M244.392,237.704h3.869c9.925,0,18-8.075,18-18v-26.216c0-4.142-3.358-7.5-7.5-7.5s-7.5,3.358-7.5,7.5v26.216
		c0,1.654-1.346,3-3,3h-3.869c-1.654,0-3-1.346-3-3c0-4.142-3.358-7.5-7.5-7.5c-4.142,0-7.5,3.358-7.5,7.5
		C226.392,229.629,234.466,237.704,244.392,237.704z"/>
	<path d="M200.523,86.928c0.859,3.306,3.843,5.614,7.259,5.614h22.469c4.616,3.398,10.312,5.41,16.47,5.41
		c6.158,0,11.854-2.013,16.47-5.41h21.68c3.416,0,6.4-2.308,7.259-5.614l6.361-24.48c0.584-2.247,0.094-4.638-1.326-6.475
		c-1.42-1.837-3.611-2.912-5.933-2.912h-22.508c-5.099-6.568-13.063-10.807-22.003-10.807c-8.94,0-16.904,4.239-22.002,10.807
		h-23.297c-2.322,0-4.513,1.075-5.933,2.912c-1.42,1.837-1.91,4.227-1.326,6.475L200.523,86.928z M281.533,68.062l-2.463,9.48
		h-5.517c0.658-2.37,1.017-4.862,1.017-7.438c0-0.688-0.034-1.367-0.083-2.041H281.533z M246.72,57.254
		c7.085,0,12.849,5.764,12.849,12.849c0,7.085-5.764,12.849-12.849,12.849c-7.085,0-12.849-5.764-12.849-12.849
		C233.872,63.018,239.635,57.254,246.72,57.254z M218.955,68.062c-0.049,0.675-0.083,1.354-0.083,2.041
		c0,2.576,0.359,5.069,1.017,7.438h-6.306l-2.463-9.48H218.955z"/>
	<path d="M292.82,277.716c2.601-3.225,2.095-7.946-1.129-10.546c-3.225-2.601-7.946-2.094-10.546,1.129
		c-0.08,0.1-9.089,9.94-32.971,9.94c-24.809,0-36.903-10.295-37.494-10.812c-3.06-2.749-7.773-2.519-10.552,0.528
		c-2.791,3.061-2.572,7.805,0.489,10.595c0.658,0.6,16.468,14.689,47.557,14.689C279.4,293.239,291.539,279.305,292.82,277.716z"/>
</g>
<g>
</g>
<g>
</g>
<g>
</g>
<g>
</g>
<g>
</g>
<g>
</g>
<g>
</g>
<g>
</g>
<g>
</g>
<g>
</g>
<g>
</g>
<g>
</g>
<g>
</g>
<g>
</g>
<g>
</g>
</svg>
